<?xml version="1.0" encoding="UTF-8"?>
<!DOCTYPE svg PUBLIC "-//W3C//DTD SVG 1.1//EN" "http://www.w3.org/Graphics/SVG/1.1/DTD/svg11.dtd">
<!-- Creator: CorelDRAW 2018 (评估版) -->
<svg xmlns="http://www.w3.org/2000/svg" xml:space="preserve" width="200px" height="200px" version="1.1" style="shape-rendering:geometricPrecision; text-rendering:geometricPrecision; image-rendering:optimizeQuality; fill-rule:evenodd; clip-rule:evenodd"
viewBox="0 0 233.57 233.46"
 xmlns:xlink="http://www.w3.org/1999/xlink">
 <defs>
  <style type="text/css">
   <![CDATA[
    .fil1 {fill:black}
    .fil2 {fill:#0052B8}
    .fil0 {fill:#DA0001}
    .fil3 {fill:white}
   ]]>
  </style>
 </defs>
 <g id="图层_x0020_1">
  <metadata id="CorelCorpID_0Corel-Layer"/>
  <g id="_465741160">
   <g>
    <path class="fil0" d="M151.72 130.56l-15.47 -11.2 -4.04 -2.48c-1.77,1.09 -12.99,9.58 -13.85,10.71l0.01 70.25c0.89,-0.25 14.3,-10.77 15.24,-11.86l-0.02 -46.85c1.14,0.13 1.8,0.68 2.56,1.54l15.58 10.06 17.61 -12.3 -0.12 -49.74 -15.24 11.81 -0.08 31.45 -2.18 -1.39z"/>
    <path class="fil0" d="M116.89 41.99c-3.93,3.21 -16.95,24.6 -19.49,31.33 -5.17,13.73 3.77,29.42 18.75,29.83 15.46,0.42 24.17,-14.89 19.83,-29.3 -1.82,-6.02 -14.81,-26.1 -19.09,-31.86z"/>
   </g>
   <g>
    <path class="fil1" d="M3.93 125.78c-3.03,-29.53 8.48,-62.4 28.32,-84.32 20.08,-22.21 45.69,-34.75 75.52,-37.59 28.66,-2.73 63.33,8.33 84.27,28.39 22.48,21.53 34.59,44.15 37.57,75.55 1.52,16.07 -1.28,33.89 -7,48.97 -5.48,14.45 -11.91,23.38 -21.39,35.23 -7.02,8.79 -21.69,19.57 -31.7,24.84 -28.53,15.01 -62.44,17.27 -92.77,5.73 -24.85,-9.45 -47.72,-28.94 -60.09,-53.07 -7.51,-14.65 -11.05,-27.34 -12.73,-43.73zm-3.52 0c2.99,31.71 15.51,56.36 38.71,77.85 22.54,20.9 55.87,32.13 86.47,29.44 30.49,-2.68 57.77,-15.71 78.04,-38.69 20.78,-23.54 32.42,-54.92 29.5,-86.56 -4.17,-45.16 -32.17,-83.74 -74.75,-100.12 -60.03,-23.09 -127.81,7.57 -150.65,67.44 -5.9,15.47 -8.88,34.15 -7.32,50.64z"/>
    <path class="fil1" d="M111.61 33.65c46.43,-3.25 86.79,33.13 89.67,79.29 2.92,46.72 -32.8,86.67 -79.31,89.74 -46.24,3.04 -87.13,-33.08 -89.72,-79.29 -2.65,-47.1 32.49,-86.45 79.36,-89.74zm-3.78 -1.88c-47.8,5.17 -82.18,47.2 -77.51,95.23 4.6,47.47 48.09,82.79 95.6,77.57 47.87,-5.26 81.71,-47.33 77.3,-95.24 -4.37,-47.39 -48.19,-82.66 -95.39,-77.56z"/>
    <path class="fil1" d="M212.45 73.9c0.15,-1.31 0.2,-1.78 -0.35,-3.04 -0.64,0.2 -2.58,1.65 -3.19,2.29 0.14,1.86 0.27,1.54 1.8,2.36 -5.78,-0.52 -5.82,-2.55 -8.59,-2.21 -2.02,3.03 0.22,3.44 5.77,4.92 3.12,0.84 4.5,0.35 5.85,3.61 -3.96,-0.7 -3.8,-2.48 -6.41,-3.36 -1.75,0.96 -0.63,0.58 -1.36,1.79 -1.33,-0.66 -2.22,-1.45 -3.42,-2.34 -1.94,-1.45 -1.7,-2.39 -4.22,-2.39 -0.96,5.31 3.2,1.79 5.29,5.78l-3.08 1.14c-0.75,-2 0.12,-2.71 -1.71,-3.18 -0.04,0.1 -0.47,5.25 -0.43,5.62 4.02,1.45 3.31,-0.31 6.85,-1.39 1.17,1.68 1.15,2.89 3.54,2.45 1.16,-2.51 0.38,-1.75 -0.62,-3.8 2.35,1.02 0.77,0.81 3.52,0.28 2.42,1.66 5.65,3.3 4.28,-1.38l5.16 0.07c0.81,-2.65 -2.17,-2.65 -3.97,-4.82 1.39,0.31 1.43,0.6 2.65,0.24 0.46,-1.22 0.37,-0.93 0.05,-2.3 -2.31,-0.36 -0.39,1.07 -3.18,-0.01l-0.41 -4.4c-2.48,1.38 -1.26,3.37 -3.82,4.07z"/>
    <path class="fil1" d="M29.47 82.72c-2.8,-1.36 -0.35,-6.18 -5.38,-6.34 0.05,1.1 3.55,13.08 7.4,11.23 2.11,-1.01 0.49,-3.65 1.64,-6.31 0.53,-1.21 1.57,-2.52 2.01,-3.59 0.63,-1.53 0.35,-7.68 0.4,-8.58 0.11,-2 -0.17,-0.35 0.48,-1.1 1.41,1.97 0.27,1.84 0.6,3.22 3.85,1.87 3.92,-8.05 -2.48,-5.84 -1.09,1.74 -1.47,4.64 -1.82,6.71 -3.1,-2.3 -4.23,-9.95 -8.87,-9.34 -2.56,3.29 2.15,7.52 4.21,9.85 0.92,1.04 3.39,3.04 3.71,4.29 0.4,1.6 -0.75,4.71 -1.9,5.8z"/>
    <path class="fil1" d="M47.13 42.31c1.12,0.87 2.37,1.72 3.87,1.42l1.23 -3.05c0.75,1.43 0.64,3.75 1.61,6.08 2.95,0.11 2.26,-1.19 3.32,-3.13 1.19,1.09 1.51,1.18 2.07,2.74 -0.99,1.22 -1.18,0.61 -0.95,1.7l3.89 0.5c2.35,-2.61 0.08,-3.16 -2.31,-6.95 -2.17,-3.43 0.36,-3.84 -1.03,-6.21 -1.6,-0.95 -3.73,0.3 -3.5,2.29 0.22,2.02 1.49,3.17 -0.5,4.86 -1.53,-9.12 4.1,-9.59 2.77,-13.17 -1.22,-0.29 -1.9,-0.47 -3.05,-0.16l1.07 1.79c-0.56,1.35 -0.69,1.81 -1.75,2.58 -0.25,-2.81 0.67,-4.86 -1.85,-6.72 -3.77,0.81 -1.08,5.62 -0.55,8.27 1.06,5.25 -3.38,4.23 -4.34,7.16z"/>
    <path class="fil1" d="M172.29 39.01c-0.39,2.53 -0.72,3.22 0.84,4.93l3.42 -0.35c-2.76,4.1 -5.1,0.99 -7.31,-0.09 -0.89,1.62 1.33,3.35 2.7,4.11 3.86,0.32 5.16,-1.03 7.99,-2.96 2.64,0.22 6.59,2.05 8.78,0.47 -0.2,-1.52 -0.9,-2.15 -2.32,-2.78 -1.09,-0.05 -0.7,1.97 -3.71,0.87 -0.09,-1.07 4.34,-3.04 5.79,-5.26 0.16,-1.84 0.48,-4.58 -1.28,-5.62 -1.43,0.97 -0.96,2.51 -2.42,4.33 -8.29,10.32 -8.93,3.21 -12.48,2.35z"/>
    <path class="fil1" d="M88.74 23.32c-1.33,0.67 -1.22,0.59 -2.34,-0.31 1.37,-0.85 0.68,-0.71 2.34,0.31zm2.51 0.12l-1.11 -1.3c0.88,-1.8 0.94,-2.67 0.51,-4.84 -2.9,0.19 -2.64,2.02 -4.66,3.43 1.84,-3.57 6.28,-6.48 4.55,-10.53 -1.26,-0.94 -3.03,-0.78 -4.51,-0.4 0.31,3.54 2.05,-0.23 -0.41,7.6 -1.6,5.12 -3.55,3.98 -2.85,6.12l2.25 0.18c0.54,2.74 -0.68,4.28 0.9,6.32l1.68 0.21c1.24,-1.57 0.98,-1.43 0.82,-3.38l2.18 0.08 0.65 -3.49z"/>
    <path class="fil1" d="M141.86 19.8l0.36 -1.8c-3.22,-1.73 -0.99,-0.41 -2.79,-2.56l-2.04 0.65 -0.68 2.62 -3.02 -0.72 -1.66 2.17 1.38 1.62 2.24 -0.81c-0.24,3.1 -6.61,0.57 -6.12,5.97 1.82,0.41 2.47,-0.44 4.43,-0.77 -0.91,1.35 0.1,0.31 -1.53,1.25 1.07,3.18 -0.16,3.91 2.98,3.97 0.51,-1.13 1.64,-5.41 2.06,-5.89 1.45,-1.66 4.36,-0.5 2.51,-4.33l1.88 -1.37z"/>
    <path class="fil1" d="M91.25 23.44l1.67 0.56 1.96 -1.41 1.42 9.3c4.05,0.13 1.86,-6.54 1.64,-8.9 1.37,-1.78 3.68,-3.65 2.19,-6.03 -1.98,-0.69 -2.24,1 -4.87,1.14 0.94,-0.87 1.09,-1.51 2.05,-2.29 1.59,-1.29 1.96,-0.68 1.47,-3.04 -2.47,-0.73 -1.96,0.03 -3.69,1.65 -2.03,1.91 -2.8,0.56 -3.05,3.03l2.31 0.84c-1.49,1.39 -0.46,0.84 -0.22,2.84l-3.23 1.09 0.35 1.22z"/>
    <path class="fil1" d="M124.58 222.3c1.26,-0.62 0.91,-0.34 1.34,-2.06 0.22,-0.86 0.44,-1.69 0.67,-2.54 0.47,-1.67 0.81,-3.25 1.47,-4.82l0.74 9.06 1.28 -0.05c0.44,-1.84 -0.33,-9.68 -0.66,-11.97l-2.12 0.14 -2.72 9.62c-1.57,-1.72 -3.05,-6.66 -4.03,-9.17l-2.25 0.13c-0.38,1.82 0.24,10.2 0.81,12.07l1.39 -0.28 -0.59 -9.08c1.9,3.21 2.88,8.23 4.67,8.95z"/>
    <path class="fil1" d="M107.36 211.3c4.88,0.41 6.92,0.41 5.42,3.82 -1.95,0.6 -3.64,0.28 -5.73,-0.06l0.31 -3.76zm4.38 5.67c1.52,-0.36 2.7,-0.53 3.18,-2.16 1.48,-5.03 -5.68,-5.06 -9.06,-5.01 -0.3,2.4 -1.62,10.2 -0.95,11.92l1.33 -0.03 0.77 -5.04c7.05,0.24 2.62,5.6 8,6.08 -0.65,-1.99 -1.76,-4.44 -3.27,-5.76z"/>
    <path class="fil1" d="M177.1 190c0.95,2.38 3.93,4.82 5.2,7.18 -5.19,-1.14 -8.86,-3.99 -11.54,-2.42 0.76,1.73 4.23,5.64 5.85,7.84 1.05,1.43 1.11,1.98 2.4,1.3 0.18,-1.93 -3.86,-5.53 -4.98,-7.47l10.31 3.21 1.23 -1.13 -7.4 -9.39 -1.07 0.88z"/>
    <path class="fil1" d="M202.39 163.13c0.27,-1.26 0.95,-2.48 1.67,-3.6 1.11,-1.71 1.54,-1.66 3.35,-0.97 0.76,2.51 -0.53,3.93 -1.83,6.1l-3.19 -1.53zm-2.13 0.88c2.91,0.88 8.35,5.37 10.88,4.99 0.73,-2.07 -2.19,-2.17 -4.1,-3.66 2.42,-4.67 3.15,-2.57 7.71,-3.63l0.9 -1.61 -6.48 0.6c0.36,-5.53 -5.69,-7.3 -8.91,3.31z"/>
    <path class="fil1" d="M18.02 156.11c2.36,0.43 5.9,-2.41 8.45,-2.88 -2.31,4.49 -6.17,7.48 -5.34,10.33 2.86,-0.21 7.99,-3.52 11.21,-4.3l-0.55 -1.64 -8.23 3.41 5.76 -9.16 -0.68 -1.46c-1.89,0.6 -3.94,1.65 -5.83,2.42 -4.56,1.86 -5.11,1.52 -4.79,3.28z"/>
    <path class="fil1" d="M41.9 191.55l0.83 0.83c2.77,-1.3 3.95,-4.73 6.4,-6.15 -0.46,5.95 -2.79,9.91 -0.32,11.57l8.07 -8.52 -1.04 -1.15 -6.23 6.47c0.39,-4.47 3.67,-15.86 -1.5,-10.05l-6.21 7z"/>
    <path class="fil1" d="M34.05 164.23c1.08,3.25 4.11,4.99 -0.81,7.87 -3.63,2.12 -5.94,-0.06 -6.98,-3.47l7.79 -4.4zm-10.07 3.8c2.15,4.54 4.41,8.7 10.03,5.65 6.16,-3.35 2.9,-7.26 0.32,-11.74l-10.35 6.09z"/>
    <path class="fil1" d="M75.96 214.33l1.1 0.45c1.8,-1.48 2.46,-5.75 3.51,-8.17 0.82,1.51 1.16,3.92 1.59,5.75 1.2,5.07 0.58,4.77 2.69,4.99l4.15 -11.15 -1.34 -0.37 -3.28 8.2c-0.63,-1.41 -1.2,-4.25 -1.61,-5.91 -0.64,-2.55 -0.23,-4.6 -2.78,-4.9l-4.03 11.11z"/>
    <path class="fil1" d="M62.37 205.6l2.58 -3.49c-0.9,-1.04 -1.33,-1.17 -2.36,-1.88 -1.65,-1.12 -1.48,-1.53 -2.57,-0.11l2.62 2.03 -0.97 1.88c-4.84,-0.2 -7.52,-3.96 -4.02,-7.93 1.4,-1.58 3.31,-2.29 5.34,-1.08 3.64,2.16 0.29,3.84 3.03,4.72 2.87,-4.65 -5.56,-9.87 -10,-4.45 -4.18,5.1 0.14,10.57 6.35,10.31z"/>
    <path class="fil1" d="M193.66 173.54c1.43,1.31 8.11,6.34 9.59,6.77l5.25 -7.08 -1.17 -0.79 -4.35 5.73 -3.05 -2.15c0.58,-1.14 1.1,-1.8 1.8,-2.79 0.32,-0.46 0.81,-1.01 1.06,-1.4 1.15,-1.81 0.42,-1.13 0.17,-1.63 -0.94,-0.3 -0.08,-1.17 -2.32,1.96 -0.67,0.95 -1.42,1.99 -2.21,2.7l-2.72 -1.96c1.23,-1.63 3.36,-4.04 3.87,-5.77 -1.51,-1.29 -1.92,0.58 -3.08,2.07 -1.04,1.35 -2.28,2.81 -2.84,4.34z"/>
    <path class="fil1" d="M99.71 216.08c-1.93,5.48 -9.83,2.83 -7.3,-3.68 2.02,-5.2 9.67,-3.07 7.3,3.68zm1.7 0.41c3.02,-8.22 -8.21,-11.84 -10.68,-4.58 -2.9,8.51 7.97,11.94 10.68,4.58z"/>
    <path class="fil1" d="M43.91 181.57c-2.87,6 -10.88,2.7 -8.38,-2.36 2.64,-5.35 10.98,-3.08 8.38,2.36zm-5.2 -6.94c-8.46,2.52 -5.41,13.65 2.28,11.64 2.73,-0.71 5.3,-4.06 4.85,-7.05 -0.51,-3.37 -3.97,-5.53 -7.13,-4.59z"/>
    <path class="fil1" d="M18.52 115.99c1.78,-0.1 2.49,1.24 2.39,2.92 -0.19,3.32 -2.29,0.92 -1.88,4.05 3.34,-0.32 3.99,-3.81 2.98,-6.59 -1,-2.74 -4.72,-3.01 -5.86,0.12 -0.54,1.45 -0.83,7.37 -3.71,5.1 -1.05,-0.83 -1.1,-2.75 -0.73,-3.93 0.9,-2.9 2.01,-0.4 2.22,-3.11 -0.01,-0.01 -0.45,-1.27 -2.51,0.41 -2,1.63 -2.06,6.79 0.55,8.28 5.4,3.08 4.77,-5.69 6.55,-7.25z"/>
    <path class="fil1" d="M217.13 148.85c0.82,1.46 0.58,3.06 -0.43,4.43 -1.76,2.4 -3.02,-0.55 -3.32,2.51 5.33,1.13 7.18,-5.58 4.85,-8.06 -3.96,-4.24 -6.04,4.02 -8.95,4.48 -1.43,-0.96 -1.48,-2.22 -0.65,-3.77 1.38,-2.59 2.38,0.05 3.17,-2.59 -3.83,-2.34 -7.2,5.45 -3.71,7.6 4.75,2.91 4.67,-6.14 9.04,-4.6z"/>
    <path class="fil1" d="M10.95 128.59l0.18 1.44 5.55 -0.84 0.81 6.01 -5.3 0.88 0.13 1.57 9.92 -1.47c1.83,-0.28 1.95,0.01 1.79,-1.61 -1.37,-0.48 -3.22,0.14 -4.89,0.34l-1.02 -5.99c5.25,-0.74 4.88,-0.35 4.66,-1.97 -1.43,-0.66 -3.96,0.14 -5.74,0.43 -1.93,0.3 -4.43,0.39 -6.09,1.21z"/>
    <path class="fil1" d="M141.86 19.8c0.08,3.31 -2.62,5.35 -2.19,8.62 1.94,1.58 6.73,1.99 9.17,1.63 1.53,-1.48 1.01,-4.95 -0.58,-6.24 -1.48,1.94 0.65,5.28 -6.03,3.29 0.31,-3.01 3.42,-2.94 0.71,-7.16l-1.08 -0.14z"/>
    <path class="fil1" d="M137.16 210.33l2.79 4.66 -3.6 0.57 0.81 -5.23zm-3.28 10.9l1.53 -0.24 0.73 -3.85 4.78 -0.93c1.18,1.95 1.49,3.2 3.64,2.93 -0.25,-2 -2.33,-4.13 -3.54,-5.85 -2.99,-4.24 -2.34,-5.07 -4.8,-4.75 -0.99,1.51 -2.01,10.26 -2.34,12.69z"/>
    <path class="fil1" d="M166.83 196.96c0.11,3.37 4.61,6.12 3.72,9.7 -1.48,2.41 -4.05,2.76 -5.69,0.06 -1.16,-1.92 -2.26,-4.89 -3.75,-6.36l-0.87 0.34c-0.41,1.06 -0.81,-0.21 1.03,3.18 2.28,4.21 4.05,8.1 8.48,5.61 2.85,-1.6 3.27,-3.85 1.86,-6.72 -0.74,-1.5 -2.68,-5.19 -3.68,-6.23l-1.1 0.42z"/>
    <path class="fil1" d="M20.31 146.57c-0.84,-0.88 -1.06,-2.17 -1.33,-3.53l5.06 0.31c-0.82,1.32 -2.54,2.11 -3.73,3.22zm-2.87 -3.63l1.42 5.03c-1.49,0.69 -2.09,1.08 -3.02,2.33l0.46 1.5 9.97 -7.94 -0.28 -1.64c-1.67,-0.7 -10.78,-1.15 -12.66,-0.9 0.3,2.31 1.5,1.63 4.11,1.62z"/>
    <path class="fil1" d="M195.9 186.25c-2.45,-0.89 -8.1,-3.8 -10.23,-3.82l-0.84 1.15 9.54 3.65c6.03,2.46 2.07,-3.38 0.77,-5.99 -0.89,-1.79 -1.77,-4.44 -3.13,-5.7 -1.23,1.29 -1.12,0.91 -0.24,2.62l4.13 8.09z"/>
    <path class="fil1" d="M218.14 120.17l-5.19 3.2 -0.13 2.01c1.47,-0.64 3.88,-2.23 5.31,-3.17 3.41,-2.25 4.43,-0.25 6.85,-1.23l-0.05 -1.22c-3.19,-1.06 -3.34,0.91 -6.74,-1.7 -1.36,-1.04 -3.57,-2.84 -4.98,-3.52 -0.16,4.06 2.76,2.47 4.93,5.63z"/>
    <path class="fil1" d="M212.68 136.42l0.68 -3.74 10.34 1.4c0.06,-1.89 0.59,-1.66 -1.53,-1.95 -0.94,-0.12 -1.91,-0.22 -2.87,-0.35 -1.9,-0.26 -3.79,-0.55 -5.7,-0.79 0.12,-1.47 0.6,-2.94 0.11,-4.02 -1.72,0.24 -1.03,-0.67 -1.83,4.96 -0.14,0.96 -0.34,2.05 -0.45,2.99 -0.18,1.67 -0.27,1.5 1.25,1.5z"/>
    <path class="fil1" d="M185.91 53.56c-0.41,-2.74 -1.43,-1.31 -2.63,-2.93 -0.73,-0.99 -0.45,-2.58 -1.45,-4.16l-2.15 -0.56c0.5,2.44 0.47,0.98 0.03,3.33 -0.06,0.32 -0.38,3.55 -0.33,3.79 0.42,2.06 5.25,1.41 6.53,0.53z"/>
    <path class="fil1" d="M144.41 206.58c0.35,1.75 3.02,10.3 3.85,11.33 2.86,-0.8 6.57,-1.45 6.74,-3.03 -1.32,-0.94 -4.11,0.73 -5.82,1.08l-3.23 -9.79 -1.54 0.41z"/>
    <path class="fil1" d="M54.8 47.98c-1.78,-0.15 -2.62,-0.59 -3.81,0.71 0.03,0.37 2.54,4.4 3.76,4.45 2.22,-0.67 3.05,-4.66 2.02,-6.52 -1.07,-0.01 -1.05,0.63 -1.97,1.36z"/>
    <path class="fil1" d="M61.35 37.26c-0.22,2.38 0.82,2.65 2.35,4.09 0.27,0.54 -0.38,0.83 0.68,2.28 1.92,-0.6 0.78,-0.07 1.55,-1.77 0.51,-1.12 0.65,-0.71 1.34,-1.9l-0.58 -1.92 -2.69 -0.27 -1.07 -1.33 -1.58 0.82z"/>
    <path class="fil1" d="M209.87 140.24c0.98,1.11 9.81,3.14 11.65,3.05 0.37,-2.02 0.61,-1.32 -4.95,-2.72 -2.05,-0.51 -4.38,-1.4 -6.44,-1.42l-0.26 1.09z"/>
    <path class="fil1" d="M181.59 186.43c0.69,1.34 6.59,7.69 8.01,8.74l1.07 -0.85c-0.45,-1.1 -7.19,-8.22 -8.27,-8.75l-0.81 0.86z"/>
    <path class="fil1" d="M145.77 18.47l-2.23 1.03c0.32,1.25 0.5,2.82 0.81,3.77 2.94,0.25 0.8,-1.19 2.5,-3.24 1.21,-1.46 2.7,-1.28 2.85,-3.24 -1.62,-0.58 -1.78,-0.46 -3.45,-0.1l-0.48 1.78z"/>
    <path class="fil1" d="M134.13 15.49c1.9,0.94 2.3,0.11 3.67,-1.24 0.01,-1.15 -0.17,-1.33 0.15,-2.33 0.38,-1.17 0.51,0.16 0.57,-1.61 -2.02,0.03 -5.54,2.51 -4.39,5.18z"/>
    <path class="fil1" d="M145.1 12.66l0.44 1.03 4.48 -0.38 0.96 -2.19c-1.78,-1.23 -2.31,-1.12 -4.48,-0.71 -0.76,1.61 0.19,1.59 -1.4,2.25z"/>
    <path class="fil1" d="M145.1 12.66l0.14 -1.26 -5.35 0.1 -1.37 1.39c1,0.96 2.66,1.7 4.12,1.77 1.28,-1.17 0.64,-1.54 2.46,-2z"/>
   </g>
   <g>
    <path class="fil2" d="M64.9 111.01c3.51,1.56 47.62,36.59 50.28,37.18l-0.06 -20.62c-2.02,-2.26 -68.21,-51.3 -69.13,-51.62l0.08 42.2c0.46,1.38 45.34,36.24 50.76,41.34l-0.07 3.2c-4.49,-2.37 -47.89,-40.29 -50.71,-40.86l-0.06 21.21 69.2 54.86 0.09 -45.29 -50.34 -39.09 -0.04 -2.51z"/>
    <path class="fil2" d="M151.73 150.73l-15.58 -10.06 0.15 43.44 50.72 -38.75 -0.17 -70.04 -15.23 11.5 -0.1 53.01c-1.07,1.21 -18.42,13.75 -19.82,14.28l0.03 -3.38z"/>
    <path class="fil2" d="M136.25 119.36l15.47 11.2 -0.02 -28.3c-1.56,0.54 -14.83,10.65 -15.48,11.89l0.03 5.21z"/>
   </g>
   <g>
    <path class="fil3" d="M133.88 221.23c0.33,-2.43 1.35,-11.18 2.34,-12.69 2.46,-0.32 1.81,0.51 4.8,4.75 1.21,1.72 3.29,3.85 3.54,5.85 -2.15,0.27 -2.46,-0.98 -3.64,-2.93l-4.78 0.93 -0.73 3.85 -1.53 0.24zm-32.47 -4.74c-2.71,7.36 -13.58,3.93 -10.68,-4.58 2.47,-7.26 13.7,-3.64 10.68,4.58zm10.33 0.48c1.51,1.32 2.62,3.77 3.27,5.76 -5.38,-0.48 -0.95,-5.84 -8,-6.08l-0.77 5.04 -1.33 0.03c-0.67,-1.72 0.65,-9.52 0.95,-11.92 3.38,-0.05 10.54,-0.02 9.06,5.01 -0.48,1.63 -1.66,1.8 -3.18,2.16zm12.84 5.33c-1.79,-0.72 -2.77,-5.74 -4.67,-8.95l0.59 9.08 -1.39 0.28c-0.57,-1.87 -1.19,-10.25 -0.81,-12.07l2.25 -0.13c0.98,2.51 2.46,7.45 4.03,9.17l2.72 -9.62 2.12 -0.14c0.33,2.29 1.1,10.13 0.66,11.97l-1.28 0.05 -0.74 -9.06c-0.66,1.57 -1,3.15 -1.47,4.82 -0.23,0.85 -0.45,1.68 -0.67,2.54 -0.43,1.72 -0.08,1.44 -1.34,2.06zm30.42 -7.42c-0.17,1.58 -3.88,2.23 -6.74,3.03 -0.83,-1.03 -3.5,-9.58 -3.85,-11.33l1.54 -0.41 3.23 9.79c1.71,-0.35 4.5,-2.02 5.82,-1.08zm-75.01 -11.66c2.55,0.3 2.14,2.35 2.78,4.9 0.41,1.66 0.98,4.5 1.61,5.91l3.28 -8.2 1.34 0.37 -4.15 11.15c-2.11,-0.22 -1.49,0.08 -2.69,-4.99 -0.43,-1.83 -0.77,-4.24 -1.59,-5.75 -1.05,2.42 -1.71,6.69 -3.51,8.17l-1.1 -0.45 4.03 -11.11zm84.87 3.5c1.64,2.7 4.21,2.35 5.69,-0.06 0.89,-3.58 -3.61,-6.33 -3.72,-9.7l1.1 -0.42c1,1.04 2.94,4.73 3.68,6.23 1.41,2.87 0.99,5.12 -1.86,6.72 -4.43,2.49 -6.2,-1.4 -8.48,-5.61 -1.84,-3.39 -1.44,-2.12 -1.03,-3.18l0.87 -0.34c1.49,1.47 2.59,4.44 3.75,6.36zm-102.49 -1.12c-6.21,0.26 -10.53,-5.21 -6.35,-10.31 4.44,-5.42 12.87,-0.2 10,4.45 -2.74,-0.88 0.61,-2.56 -3.03,-4.72 -2.03,-1.21 -3.94,-0.5 -5.34,1.08 -3.5,3.97 -0.82,7.73 4.02,7.93l0.97 -1.88 -2.62 -2.03c1.09,-1.42 0.92,-1.01 2.57,0.11 1.03,0.71 1.46,0.84 2.36,1.88l-2.58 3.49zm119.93 -8.42c-1.27,-2.36 -4.25,-4.8 -5.2,-7.18l1.07 -0.88 7.4 9.39 -1.23 1.13 -10.31 -3.21c1.12,1.94 5.16,5.54 4.98,7.47 -1.29,0.68 -1.35,0.13 -2.4,-1.3 -1.62,-2.2 -5.09,-6.11 -5.85,-7.84 2.68,-1.57 6.35,1.28 11.54,2.42zm7.3 -2.01c-1.42,-1.05 -7.32,-7.4 -8.01,-8.74l0.81 -0.86c1.08,0.53 7.82,7.65 8.27,8.75l-1.07 0.85zm-141.49 -10.62c5.17,-5.81 1.89,5.58 1.5,10.05l6.23 -6.47 1.04 1.15 -8.07 8.52c-2.47,-1.66 -0.14,-5.62 0.32,-11.57 -2.45,1.42 -3.63,4.85 -6.4,6.15l-0.83 -0.83 6.21 -7zm-9.4 -9.92c3.16,-0.94 6.62,1.22 7.13,4.59 0.45,2.99 -2.12,6.34 -4.85,7.05 -7.69,2.01 -10.74,-9.12 -2.28,-11.64zm146.12 8.95l0.84 -1.15c2.13,0.02 7.78,2.93 10.23,3.82l-4.13 -8.09c-0.88,-1.71 -0.99,-1.33 0.24,-2.62 1.36,1.26 2.24,3.91 3.13,5.7 1.3,2.61 5.26,8.45 -0.77,5.99l-9.54 -3.65zm-150.5 -21.64c2.58,4.48 5.84,8.39 -0.32,11.74 -5.62,3.05 -7.88,-1.11 -10.03,-5.65l10.35 -6.09zm159.33 11.6c0.56,-1.53 1.8,-2.99 2.84,-4.34 1.16,-1.49 1.57,-3.36 3.08,-2.07 -0.51,1.73 -2.64,4.14 -3.87,5.77l2.72 1.96c0.79,-0.71 1.54,-1.75 2.21,-2.7 2.24,-3.13 1.38,-2.26 2.32,-1.96 0.25,0.5 0.98,-0.18 -0.17,1.63 -0.25,0.39 -0.74,0.94 -1.06,1.4 -0.7,0.99 -1.22,1.65 -1.8,2.79l3.05 2.15 4.35 -5.73 1.17 0.79 -5.25 7.08c-1.48,-0.43 -8.16,-5.46 -9.59,-6.77zm6.6 -9.53c3.22,-10.61 9.27,-8.84 8.91,-3.31l6.48 -0.6 -0.9 1.61c-4.56,1.06 -5.29,-1.04 -7.71,3.63 1.91,1.49 4.83,1.59 4.1,3.66 -2.53,0.38 -7.97,-4.11 -10.88,-4.99zm-182.24 -7.9c-0.32,-1.76 0.23,-1.42 4.79,-3.28 1.89,-0.77 3.94,-1.82 5.83,-2.42l0.68 1.46 -5.76 9.16 8.23 -3.41 0.55 1.64c-3.22,0.78 -8.35,4.09 -11.21,4.3 -0.83,-2.85 3.03,-5.84 5.34,-10.33 -2.55,0.47 -6.09,3.31 -8.45,2.88zm199.11 -7.26c-4.37,-1.54 -4.29,7.51 -9.04,4.6 -3.49,-2.15 -0.12,-9.94 3.71,-7.6 -0.79,2.64 -1.79,0 -3.17,2.59 -0.83,1.55 -0.78,2.81 0.65,3.77 2.91,-0.46 4.99,-8.72 8.95,-4.48 2.33,2.48 0.48,9.19 -4.85,8.06 0.3,-3.06 1.56,-0.11 3.32,-2.51 1.01,-1.37 1.25,-2.97 0.43,-4.43zm-201.29 1.45c0.93,-1.25 1.53,-1.64 3.02,-2.33l-1.42 -5.03c-2.61,0.01 -3.81,0.69 -4.11,-1.62 1.88,-0.25 10.99,0.2 12.66,0.9l0.28 1.64 -9.97 7.94 -0.46 -1.5zm205.68 -7.01c-1.84,0.09 -10.67,-1.94 -11.65,-3.05l0.26 -1.09c2.06,0.02 4.39,0.91 6.44,1.42 5.56,1.4 5.32,0.7 4.95,2.72zm-8.84 -6.87c-1.52,0 -1.43,0.17 -1.25,-1.5 0.11,-0.94 0.31,-2.03 0.45,-2.99 0.8,-5.63 0.11,-4.72 1.83,-4.96 0.49,1.08 0.01,2.55 -0.11,4.02 1.91,0.24 3.8,0.53 5.7,0.79 0.96,0.13 1.93,0.23 2.87,0.35 2.12,0.29 1.59,0.06 1.53,1.95l-10.34 -1.4 -0.68 3.74zm-201.73 -7.83c1.66,-0.82 4.16,-0.91 6.09,-1.21 1.78,-0.29 4.31,-1.09 5.74,-0.43 0.22,1.62 0.59,1.23 -4.66,1.97l1.02 5.99c1.67,-0.2 3.52,-0.82 4.89,-0.34 0.16,1.62 0.04,1.33 -1.79,1.61l-9.92 1.47 -0.13 -1.57 5.3 -0.88 -0.81 -6.01 -5.55 0.84 -0.18 -1.44zm96.88 -96.82c47.2,-5.1 91.02,30.17 95.39,77.56 4.41,47.91 -29.43,89.98 -77.3,95.24 -47.51,5.22 -91,-30.1 -95.6,-77.57 -4.67,-48.03 29.71,-90.06 77.51,-95.23zm110.3 90.44c-1.43,0.94 -3.84,2.53 -5.31,3.17l0.13 -2.01 5.19 -3.2c-2.17,-3.16 -5.09,-1.57 -4.93,-5.63 1.41,0.68 3.62,2.48 4.98,3.52 3.4,2.61 3.55,0.64 6.74,1.7l0.05 1.22c-2.42,0.98 -3.44,-1.02 -6.85,1.23zm-199.61 -6.22c-1.78,1.56 -1.15,10.33 -6.55,7.25 -2.61,-1.49 -2.55,-6.65 -0.55,-8.28 2.06,-1.68 2.5,-0.42 2.51,-0.41 -0.21,2.71 -1.32,0.21 -2.22,3.11 -0.37,1.18 -0.32,3.1 0.73,3.93 2.88,2.27 3.17,-3.65 3.71,-5.1 1.14,-3.13 4.86,-2.86 5.86,-0.12 1.01,2.78 0.36,6.27 -2.98,6.59 -0.41,-3.13 1.69,-0.73 1.88,-4.05 0.1,-1.68 -0.61,-3.02 -2.39,-2.92zm186.73 -32.49c-3.54,1.08 -2.83,2.84 -6.85,1.39 -0.04,-0.37 0.39,-5.52 0.43,-5.62 1.83,0.47 0.96,1.18 1.71,3.18l3.08 -1.14c-2.09,-3.99 -6.25,-0.47 -5.29,-5.78 2.52,0 2.28,0.94 4.22,2.39 1.2,0.89 2.09,1.68 3.42,2.34 0.73,-1.21 -0.39,-0.83 1.36,-1.79 2.61,0.88 2.45,2.66 6.41,3.36 -1.35,-3.26 -2.73,-2.77 -5.85,-3.61 -5.55,-1.48 -7.79,-1.89 -5.77,-4.92 2.77,-0.34 2.81,1.69 8.59,2.21 -1.53,-0.82 -1.66,-0.5 -1.8,-2.36 0.61,-0.64 2.55,-2.09 3.19,-2.29 0.55,1.26 0.5,1.73 0.35,3.04 2.56,-0.7 1.34,-2.69 3.82,-4.07l0.41 4.4c2.79,1.08 0.87,-0.35 3.18,0.01 0.32,1.37 0.41,1.08 -0.05,2.3 -1.22,0.36 -1.26,0.07 -2.65,-0.24 1.8,2.17 4.78,2.17 3.97,4.82l-5.16 -0.07c1.37,4.68 -1.86,3.04 -4.28,1.38 -2.75,0.53 -1.17,0.74 -3.52,-0.28 1,2.05 1.78,1.29 0.62,3.8 -2.39,0.44 -2.37,-0.77 -3.54,-2.45zm-172.12 -2.2c-1.15,2.66 0.47,5.3 -1.64,6.31 -3.85,1.85 -7.35,-10.13 -7.4,-11.23 5.03,0.16 2.58,4.98 5.38,6.34 1.15,-1.09 2.3,-4.2 1.9,-5.8 -0.32,-1.25 -2.79,-3.25 -3.71,-4.29 -2.06,-2.33 -6.77,-6.56 -4.21,-9.85 4.64,-0.61 5.77,7.04 8.87,9.34 0.35,-2.07 0.73,-4.97 1.82,-6.71 6.4,-2.21 6.33,7.71 2.48,5.84 -0.33,-1.38 0.81,-1.25 -0.6,-3.22 -0.65,0.75 -0.37,-0.9 -0.48,1.1 -0.05,0.9 0.23,7.05 -0.4,8.58 -0.44,1.07 -1.48,2.38 -2.01,3.59zm21.67 -33.32c0.92,-0.73 0.9,-1.37 1.97,-1.36 1.03,1.86 0.2,5.85 -2.02,6.52 -1.22,-0.05 -3.73,-4.08 -3.76,-4.45 1.19,-1.3 2.03,-0.86 3.81,-0.71zm131.11 5.58c-1.28,0.88 -6.11,1.53 -6.53,-0.53 -0.05,-0.24 0.27,-3.47 0.33,-3.79 0.44,-2.35 0.47,-0.89 -0.03,-3.33l2.15 0.56c1,1.58 0.72,3.17 1.45,4.16 1.2,1.62 2.22,0.19 2.63,2.93zm-13.62 -14.55c3.55,0.86 4.19,7.97 12.48,-2.35 1.46,-1.82 0.99,-3.36 2.42,-4.33 1.76,1.04 1.44,3.78 1.28,5.62 -1.45,2.22 -5.88,4.19 -5.79,5.26 3.01,1.1 2.62,-0.92 3.71,-0.87 1.42,0.63 2.12,1.26 2.32,2.78 -2.19,1.58 -6.14,-0.25 -8.78,-0.47 -2.83,1.93 -4.13,3.28 -7.99,2.96 -1.37,-0.76 -3.59,-2.49 -2.7,-4.11 2.21,1.08 4.55,4.19 7.31,0.09l-3.42 0.35c-1.56,-1.71 -1.23,-2.4 -0.84,-4.93zm-107.91 4.62c-1.06,-1.45 -0.41,-1.74 -0.68,-2.28 -1.53,-1.44 -2.57,-1.71 -2.35,-4.09l1.58 -0.82 1.07 1.33 2.69 0.27 0.58 1.92c-0.69,1.19 -0.83,0.78 -1.34,1.9 -0.77,1.7 0.37,1.17 -1.55,1.77zm-17.25 -1.32c0.96,-2.93 5.4,-1.91 4.34,-7.16 -0.53,-2.65 -3.22,-7.46 0.55,-8.27 2.52,1.86 1.6,3.91 1.85,6.72 1.06,-0.77 1.19,-1.23 1.75,-2.58l-1.07 -1.79c1.15,-0.31 1.83,-0.13 3.05,0.16 1.33,3.58 -4.3,4.05 -2.77,13.17 1.99,-1.69 0.72,-2.84 0.5,-4.86 -0.23,-1.99 1.9,-3.24 3.5,-2.29 1.39,2.37 -1.14,2.78 1.03,6.21 2.39,3.79 4.66,4.34 2.31,6.95l-3.89 -0.5c-0.23,-1.09 -0.04,-0.48 0.95,-1.7 -0.56,-1.56 -0.88,-1.65 -2.07,-2.74 -1.06,1.94 -0.37,3.24 -3.32,3.13 -0.97,-2.33 -0.86,-4.65 -1.61,-6.08l-1.23 3.05c-1.5,0.3 -2.75,-0.55 -3.87,-1.42zm94.73 -22.51l1.08 0.14c2.71,4.22 -0.4,4.15 -0.71,7.16 6.68,1.99 4.55,-1.35 6.03,-3.29 1.59,1.29 2.11,4.76 0.58,6.24 -2.44,0.36 -7.23,-0.05 -9.17,-1.63 -0.43,-3.27 2.27,-5.31 2.19,-8.62zm0 0l-1.88 1.37c1.85,3.83 -1.06,2.67 -2.51,4.33 -0.42,0.48 -1.55,4.76 -2.06,5.89 -3.14,-0.06 -1.91,-0.79 -2.98,-3.97 1.63,-0.94 0.62,0.1 1.53,-1.25 -1.96,0.33 -2.61,1.18 -4.43,0.77 -0.49,-5.4 5.88,-2.87 6.12,-5.97l-2.24 0.81 -1.38 -1.62 1.66 -2.17 3.02 0.72 0.68 -2.62 2.04 -0.65c1.8,2.15 -0.43,0.83 2.79,2.56l-0.36 1.8zm4.39 -3.11c1.67,-0.36 1.83,-0.48 3.45,0.1 -0.15,1.96 -1.64,1.78 -2.85,3.24 -1.7,2.05 0.44,3.49 -2.5,3.24 -0.31,-0.95 -0.49,-2.52 -0.81,-3.77l2.23 -1.03 0.48 -1.78zm-55 6.75l-0.35 -1.22 3.23 -1.09c-0.24,-2 -1.27,-1.45 0.22,-2.84l-2.31 -0.84c0.25,-2.47 1.02,-1.12 3.05,-3.03 1.73,-1.62 1.22,-2.38 3.69,-1.65 0.49,2.36 0.12,1.75 -1.47,3.04 -0.96,0.78 -1.11,1.42 -2.05,2.29 2.63,-0.14 2.89,-1.83 4.87,-1.14 1.49,2.38 -0.82,4.25 -2.19,6.03 0.22,2.36 2.41,9.03 -1.64,8.9l-1.42 -9.3 -1.96 1.41 -1.67 -0.56zm53.85 -10.78c-1.82,0.46 -1.18,0.83 -2.46,2 -1.46,-0.07 -3.12,-0.81 -4.12,-1.77l1.37 -1.39 5.35 -0.1 -0.14 1.26zm0 0c1.59,-0.66 0.64,-0.64 1.4,-2.25 2.17,-0.41 2.7,-0.52 4.48,0.71l-0.96 2.19 -4.48 0.38 -0.44 -1.03zm-10.97 2.83c-1.15,-2.67 2.37,-5.15 4.39,-5.18 -0.06,1.77 -0.19,0.44 -0.57,1.61 -0.32,1 -0.14,1.18 -0.15,2.33 -1.37,1.35 -1.77,2.18 -3.67,1.24zm-42.88 7.95l-0.65 3.49 -2.18 -0.08c0.16,1.95 0.42,1.81 -0.82,3.38l-1.68 -0.21c-1.58,-2.04 -0.36,-3.58 -0.9,-6.32l-2.25 -0.18c-0.7,-2.14 1.25,-1 2.85,-6.12 2.46,-7.83 0.72,-4.06 0.41,-7.6 1.48,-0.38 3.25,-0.54 4.51,0.4 1.73,4.05 -2.71,6.96 -4.55,10.53 2.02,-1.41 1.76,-3.24 4.66,-3.43 0.43,2.17 0.37,3.04 -0.51,4.84l1.11 1.3zm-87.32 102.34c1.68,16.39 5.22,29.08 12.73,43.73 12.37,24.13 35.24,43.62 60.09,53.07 30.33,11.54 64.24,9.28 92.77,-5.73 10.01,-5.27 24.68,-16.05 31.7,-24.84 9.48,-11.85 15.91,-20.78 21.39,-35.23 5.72,-15.08 8.52,-32.9 7,-48.97 -2.98,-31.4 -15.09,-54.02 -37.57,-75.55 -20.94,-20.06 -55.61,-31.12 -84.27,-28.39 -29.83,2.84 -55.44,15.38 -75.52,37.59 -19.84,21.92 -31.35,54.79 -28.32,84.32z"/>
    <path class="fil3" d="M151.73 150.73l-0.03 3.38c1.4,-0.53 18.75,-13.07 19.82,-14.28l0.1 -53.01 15.23 -11.5 0.17 70.04 -50.72 38.75 -0.15 -43.44c-0.76,-0.86 -1.42,-1.41 -2.56,-1.54l0.02 46.85c-0.94,1.09 -14.35,11.61 -15.24,11.86l-0.01 -70.25c0.86,-1.13 12.08,-9.62 13.85,-10.71l4.04 2.48 -0.03 -5.21c0.65,-1.24 13.92,-11.35 15.48,-11.89l0.02 28.3 2.18 1.39 0.08 -31.45 15.24 -11.81 0.12 49.74 -17.61 12.3zm-86.79 -37.21l50.34 39.09 -0.09 45.29 -69.2 -54.86 0.06 -21.21c2.82,0.57 46.22,38.49 50.71,40.86l0.07 -3.2c-5.42,-5.1 -50.3,-39.96 -50.76,-41.34l-0.08 -42.2c0.92,0.32 67.11,49.36 69.13,51.62l0.06 20.62c-2.66,-0.59 -46.77,-35.62 -50.28,-37.18l0.04 2.51zm51.95 -71.53c4.28,5.76 17.27,25.84 19.09,31.86 4.34,14.41 -4.37,29.72 -19.83,29.3 -14.98,-0.41 -23.92,-16.1 -18.75,-29.83 2.54,-6.73 15.56,-28.12 19.49,-31.33zm-5.28 -8.34c-46.87,3.29 -82.01,42.64 -79.36,89.74 2.59,46.21 43.48,82.33 89.72,79.29 46.51,-3.07 82.23,-43.02 79.31,-89.74 -2.88,-46.16 -43.24,-82.54 -89.67,-79.29z"/>
    <path class="fil3" d="M43.91 181.57c2.6,-5.44 -5.74,-7.71 -8.38,-2.36 -2.5,5.06 5.51,8.36 8.38,2.36z"/>
    <path class="fil3" d="M99.71 216.08c2.37,-6.75 -5.28,-8.88 -7.3,-3.68 -2.53,6.51 5.37,9.16 7.3,3.68z"/>
    <path class="fil3" d="M26.26 168.63c1.04,3.41 3.35,5.59 6.98,3.47 4.92,-2.88 1.89,-4.62 0.81,-7.87l-7.79 4.4z"/>
    <path class="fil3" d="M202.39 163.13l3.19 1.53c1.3,-2.17 2.59,-3.59 1.83,-6.1 -1.81,-0.69 -2.24,-0.74 -3.35,0.97 -0.72,1.12 -1.4,2.34 -1.67,3.6z"/>
    <path class="fil3" d="M107.05 215.06c2.09,0.34 3.78,0.66 5.73,0.06 1.5,-3.41 -0.54,-3.41 -5.42,-3.82l-0.31 3.76z"/>
    <path class="fil3" d="M20.31 146.57c1.19,-1.11 2.91,-1.9 3.73,-3.22l-5.06 -0.31c0.27,1.36 0.49,2.65 1.33,3.53z"/>
    <polygon class="fil3" points="136.35,215.56 139.95,214.99 137.16,210.33 "/>
    <path class="fil3" d="M86.4 23.01c1.12,0.9 1.01,0.98 2.34,0.31 -1.66,-1.02 -0.97,-1.16 -2.34,-0.31z"/>
   </g>
  </g>
 </g>
</svg>
